<svg xmlns="http://www.w3.org/2000/svg" viewBox="0 0 48 48" width="48" height="48">
  <defs>
    <radialGradient id="bg48" cx="50%" cy="50%" r="50%">
      <stop offset="0%" stop-color="#1c1410"/>
      <stop offset="100%" stop-color="#0d0b09"/>
    </radialGradient>
    <radialGradient id="glow48" cx="50%" cy="72%" r="55%">
      <stop offset="0%" stop-color="#ff8400" stop-opacity="0.4"/>
      <stop offset="100%" stop-color="#c17e2c" stop-opacity="0"/>
    </radialGradient>
    <linearGradient id="flame48" x1="50%" y1="0%" x2="50%" y2="100%">
      <stop offset="0%" stop-color="#ffb347"/>
      <stop offset="50%" stop-color="#ff8400"/>
      <stop offset="100%" stop-color="#c17e2c"/>
    </linearGradient>
  </defs>
  <rect width="48" height="48" rx="10" fill="url(#bg48)"/>
  <rect width="48" height="48" rx="10" fill="url(#glow48)"/>
  <circle cx="24" cy="23" r="13" fill="none" stroke="#c17e2c" stroke-width="0.5" stroke-opacity="0.25" stroke-dasharray="2 2"/>
  <path d="M24 10 C24 10 15 19 15 25 C15 30 19 33 24 33 C29 33 33 30 33 25 C33 19 24 10 24 10 Z"
        fill="url(#flame48)" opacity="0.92"/>
  <ellipse cx="21" cy="19" rx="2.5" ry="4" fill="white" opacity="0.12" transform="rotate(-15 21 19)"/>
  <rect x="19" y="21" width="10" height="2" rx="1" fill="#0d0b09" opacity="0.7"/>
  <rect x="22.5" y="21" width="3" height="8" rx="1" fill="#0d0b09" opacity="0.7"/>
  <circle cx="24" cy="36" r="1.2" fill="#ff8400" opacity="0.6"/>
</svg>
